inDegrees=yes
name=ik_lifting_orientations
DataType=double
version=3
OpenSimVersion=4.5-2024-01-10-34fd6af
endheader
time	pelvis_tilt	pelvis_list	pelvis_rotation	pelvis_tx	pelvis_ty	pelvis_tz	hip_flexion_r	hip_adduction_r	hip_rotation_r	knee_angle_r	knee_angle_r_beta	ankle_angle_r	subtalar_angle_r	mtp_angle_r	hip_flexion_l	hip_adduction_l	hip_rotation_l	knee_angle_l	knee_angle_l_beta	ankle_angle_l	subtalar_angle_l	mtp_angle_l	lumbar_extension	lumbar_bending	lumbar_rotation	arm_flex_r	arm_add_r	arm_rot_r	elbow_flex_r	pro_sup_r	wrist_flex_r	wrist_dev_r	arm_flex_l	arm_add_l	arm_rot_l	elbow_flex_l	pro_sup_l	wrist_flex_l	wrist_dev_l
0.02	0.001578994500191269	0.002677134318615764	-90.00237839608859	0	0.9399999998679526	0	43.88822127400152	-16.94455363562293	0	59.2650725012518	1.034370646579995	-9.16206346254901	0	0	43.88822127400152	-16.94455363562293	0	59.2650725012518	1.034370646579995	-9.16206346254901	0	0	0.001303463217922443	-0.001465061333175718	0.004053268535332456	-0.2394471442821067	-0.05234183677114893	-0.007811177234971859	0.5034759324698077	5.294269091603834	0	0	0	-7.213627429533854	0	84.79350138510648	5.294269091603834	0	0
0.03	0.04012088376155653	0.05030310807524095	-89.91083233721552	0	0.9399999998679526	0	43.88852123594359	-16.93779231351017	0	59.26522788697753	1.03437335857252	-9.156860682518245	0	0	43.88852123594359	-16.93779231351017	0	59.26522788697753	1.03437335857252	-9.156860682518245	0	0	-0.292416454756878	0.2811225097342969	-0.2915508951361501	0.2662327854915337	-0.4519859152100291	-0.4744813459399892	0.2194634925890145	5.293272749362726	0	0	0	-7.214707240392999	0	84.79448106852765	5.293272749362726	0	0
0.04	0.04271350673100756	0.04124071795333915	-89.84071308028062	0	0.9399999998679526	0	43.88897262183553	-16.92761231506845	0	59.26546146225793	1.034377435230214	-9.149027829039829	0	0	43.88897262183553	-16.92761231506845	0	59.26546146225793	1.034377435230214	-9.149027829039829	0	0	-0.6761615097126347	0.6455972458307507	-0.684933416939853	0.8812162948936756	-0.8568187272041123	-1.135785144773747	0.1103571336664799	5.291773941816414	0	0	0	-7.21633110930525	0	84.79595481576197	5.291773941816414	0	0
0.05	0.01407863138632568	0.01477976862363018	-89.62018453905527	0	0.9399999998679526	0	43.8893243698324	-16.9196881033768	0	59.26564349739377	1.034380612342689	-9.142932837880593	0	0	43.8893243698324	-16.9196881033768	0	59.26564349739377	1.034380612342689	-9.142932837880593	0	0	-1.041389544240565	1.012521359600161	-1.220292089013725	1.225381646137789	-1.37520466656104	-1.403237532103288	0.08735778344898408	5.290605839072674	0	0	0	-7.217596771847208	0	84.79710338773775	5.290605839072674	0	0
0.06	0.02104011247559676	0.02151619652503134	-89.48367634372183	0	0.9399999998679526	0	43.88970111427032	-16.91120884597051	0	59.26583849054705	1.034384015615232	-9.136412914568952	0	0	43.88970111427032	-16.91120884597051	0	59.26583849054705	1.034384015615232	-9.136412914568952	0	0	-1.369166210635786	1.33813592487018	-1.520763803023091	1.476211444614834	-1.885995098179622	-1.937320662809965	0.07018504953721681	5.289354586857212	0	0	0	-7.218952628240246	0	84.79833371902666	5.289354586857212	0	0
0.07000000000000001	0.0277232427349084	0.03489279502045994	-89.3537243339477	0	0.9399999998679526	0	43.8901253776982	-16.90166623427366	0	59.26605802805501	1.034387847267578	-9.129077410823506	0	0	43.8901253776982	-16.90166623427366	0	59.26605802805501	1.034387847267578	-9.129077410823506	0	0	-1.688215697552007	1.671610264984758	-1.962865284526401	1.905659906908917	-2.280188829077139	-1.981676032008439	0.06099819852596593	5.287945524791579	0	0	0	-7.220479434827887	0	84.79971922160244	5.287945524791579	0	0
0.08	0.01403137785163489	0.02105396830360552	-88.91296877329631	0	0.9399999998679526	0	43.8905017615804	-16.89320917312372	0	59.26625280054421	1.034391246688807	-9.122578617713335	0	0	43.8905017615804	-16.89320917312372	0	59.26625280054421	1.034391246688807	-9.122578617713335	0	0	-2.036340937391267	2.056884643136714	-2.782056784579735	2.221862592228171	-2.72402577279757	-2.133712063899579	0.05348159835410312	5.286695355718845	0	0	0	-7.221834148390108	0	84.80094848797002	5.286695355718845	0	0
0.09	-0.007423560567866329	-0.003702690617049097	-88.69539033593863	0	0.9399999998679526	0	43.89080108766441	-16.88649505245607	0	59.26640780710535	1.034393952063661	-9.117421377096759	0	0	43.89080108766441	-16.88649505245607	0	59.26640780710535	1.034393952063661	-9.117421377096759	0	0	-2.401205624114787	2.480983470710381	-3.477474002520503	2.642784985333731	-3.130248979289045	-1.919791905920997	0.04824197961749808	5.285700802730225	0	0	0	-7.222912154982955	0	84.80192641234949	5.285700802730225	0	0
0.1	-0.07907257478658296	-0.08273529541651262	-88.26660251450811	0	0.9399999998679526	0	43.89119100728865	-16.87775158259938	0	59.26660965007068	1.034397474887978	-9.110706721889434	0	0	43.89119100728865	-16.87775158259938	0	59.26660965007068	1.034397474887978	-9.110706721889434	0	0	-2.659404545070726	2.79335341608876	-4.137737212191828	2.864496126566375	-3.341208751173682	-1.93941404451073	0.04583360387503686	5.284405339197796	0	0	0	-7.224316197145856	0	84.80320021610277	5.284405339197796	0	0
0.11	-0.1228339950550943	-0.1271233134692102	-88.0012693492491	0	0.9399999998679526	0	43.8958568757331	-16.80554293487397	0	59.26965459872908	1.034450619267621	-9.058917453246114	0	0	43.8958568757331	-16.80554293487397	0	59.26965459872908	1.034450619267621	-9.058917453246114	0	0	-2.7521416731014	3.315033991979521	-9.326644513455467	3.409925853185888	-3.497839742792761	2.486886043367231	0.04192353924375677	5.267418360708939	0	0	0	-7.24412718534043	0	84.81990410667505	5.267418360708939	0	0
0.12	-0.1750612052486897	-0.1845505094328656	-87.92500567655226	0	0.9399999998679526	0	43.89616450373249	-16.79870520580386	0	59.26981398681634	1.034453401114532	-9.053678269727552	0	0	43.89616450373249	-16.79870520580386	0	59.26981398681634	1.034453401114532	-9.053678269727552	0	0	-3.07669463659429	3.781161728808443	-10.54866229022163	3.865798895590841	-3.786204772311044	3.210003600766105	0.04032662424926401	5.26639490968406	0	0	0	-7.245237495070501	0	84.82091044706193	5.26639490968406	0	0
0.13	-0.2771742611477283	-0.2892908265710503	-87.84695735979489	0	0.9399999998679526	0	43.89643459328123	-16.79271320395505	0	59.26995405177659	1.034455845709255	-9.049089138897962	0	0	43.89643459328123	-16.79271320395505	0	59.26995405177659	1.034455845709255	-9.049089138897962	0	0	-3.487098593483975	4.363699559484501	-11.75656238286055	4.361894552024343	-4.148425911820356	4.089470847561812	0.0394263407169343	5.265495985038399	0	0	0	-7.246213024067196	0	84.82179434320422	5.265495985038399	0	0
0.14	-0.3909545585849395	-0.407969041598775	-87.77412076176823	0	0.9399999998679526	0	43.89674956650006	-16.78572668313636	0	59.27011733626984	1.03445869556128	-9.043739117785234	0	0	43.89674956650006	-16.78572668313636	0	59.27011733626984	1.03445869556128	-9.043739117785234	0	0	-3.903715974260038	4.949777487406107	-12.69147766500707	4.862097840955347	-4.594160968178945	4.787865590168879	0.03939307671341118	5.26444775707205	0	0	0	-7.247350484994898	0	84.82282504653126	5.26444775707205	0	0
0.15	-0.5549647731300337	-0.57742022400147	-87.56806929390856	0	0.9399999998679526	0	43.89707486383158	-16.77852273616312	0	59.27028607964576	1.034461640688781	-9.038224863067647	0	0	43.89707486383158	-16.77852273616312	0	59.27028607964576	1.034461640688781	-9.038224863067647	0	0	-4.365163841904028	5.592791927537665	-13.51579446597674	5.379440056412206	-4.986452408849709	5.401452724792251	0.04028353463029417	5.263364839729155	0	0	0	-7.248525868672495	0	84.82388985950305	5.263364839729155	0	0
0.16	-1.04176652947579	-1.080423924699023	-87.92003948226909	0	0.9399999998679526	0	43.89738923153313	-16.77162589341835	0	59.27045024429459	1.034464505902418	-9.032954432271127	0	0	43.89738923153313	-16.77162589341835	0	59.27045024429459	1.034464505902418	-9.032954432271127	0	0	-5.241692513488097	6.583681758324412	-13.80450411802419	5.924616403863743	-5.420954487798959	6.255570820276922	0.04140147997092801	5.262315590784038	0	0	0	-7.249667214918676	0	84.82492156863231	5.262315590784038	0	0
0.17	-1.364759139983254	-1.410865735780462	-88.43747073301387	0	0.9399999998679526	0	43.89774375100718	-16.76380928670437	0	59.27063457061315	1.034467723003575	-9.026977080623528	0	0	43.89774375100718	-16.76380928670437	0	59.27063457061315	1.034467723003575	-9.026977080623528	0	0	-5.981781460197072	7.382623087285	-13.91168517847318	6.48171534916295	-5.72199589044993	6.982078565567081	0.04285032341961172	5.261134214110496	0	0	0	-7.250950511992033	0	84.82608319563492	5.261134214110496	0	0
0.18	-2.262228203058026	-2.260967625211397	-90.03651713994742	0	0.9399999998679526	0	43.8980672635717	-16.75680681199436	0	59.27080507352051	1.034470698840693	-9.021639017702649	0	0	43.8980672635717	-16.75680681199436	0	59.27080507352051	1.034470698840693	-9.021639017702649	0	0	-7.35065065675217	8.531309681358346	-12.66834068362217	6.917145725131008	-6.035039251057979	7.687801736907957	0.04451386506980062	5.260050512927633	0	0	0	-7.252132948656345	0	84.82714878352087	5.260050512927633	0	0
0.19	-2.608726795554057	-2.599962240840751	-90.25160470362013	0	0.9399999998679526	0	43.89843453697675	-16.74872320717016	0	59.27099605187917	1.034474032041851	-9.015461141752832	0	0	43.89843453697675	-16.74872320717016	0	59.27099605187917	1.034474032041851	-9.015461141752832	0	0	-8.029955745557007	9.229090637365964	-12.82153052337002	7.303942965783496	-6.355247903452158	8.390015955593526	0.04672859584094712	5.258826416669589	0	0	0	-7.253462791672529	0	84.8283524161113	5.258826416669589	0	0
0.2	-2.941925179811093	-2.944882231214545	-90.10744799616053	0	0.9399999998679526	0	43.89868032883196	-16.74332102963173	0	59.27112393199353	1.034476263970895	-9.011334036140735	0	0	43.89868032883196	-16.74332102963173	0	59.27112393199353	1.034476263970895	-9.011334036140735	0	0	-8.670771330712833	9.997396501589552	-13.173944288338	7.666245012136703	-6.811799274870992	9.106803677497712	0.0501015781172488	5.258006989752741	0	0	0	-7.254353193153762	0	84.82915814451063	5.258006989752741	0	0
0.21	-3.113759447874851	-3.108923705257699	-90.0815643342564	0	0.9399999998679526	0	43.89894412954842	-16.73749487127054	0	59.27126059890176	1.034478649258422	-9.006880083348564	0	0	43.89894412954842	-16.73749487127054	0	59.27126059890176	1.034478649258422	-9.006880083348564	0	0	-9.188893819216874	10.56062375768138	-13.10875057911934	8.009812319747962	-7.158769411466928	9.238897754861476	0.05029695914928008	5.257128893372346	0	0	0	-7.255306053668836	0	84.83002156075612	5.257128893372346	0	0
0.22	-3.518213422024152	-3.56907095312824	-89.35367711903095	0	0.9399999998679526	0	43.89923868144645	-16.73103354938615	0	59.27141394640897	1.034481325677322	-9.001946406017703	0	0	43.89923868144645	-16.73103354938615	0	59.27141394640897	1.034481325677322	-9.001946406017703	0	0	-9.785454341071175	11.37620025814573	-13.66063845135749	8.230163221640412	-7.544144664552247	9.555203594189454	0.05287289706558468	5.256146571235231	0	0	0	-7.256373743530625	0	84.83098746145698	5.256146571235231	0	0
0.23	-3.932636237327994	-4.066207913558991	-88.19873951026372	0	0.9399999998679526	0	43.89955433271218	-16.72420551481888	0	59.2715798973413	1.034484222067488	-8.996745744109683	0	0	43.89955433271218	-16.72420551481888	0	59.2715798973413	1.034484222067488	-8.996745744109683	0	0	-10.43230532889439	12.60050573747108	-15.53791199791656	8.788660655122055	-7.995911027516001	10.70267208604786	0.05468326793461632	5.255089861628244	0	0	0	-7.257525981617953	0	84.83202650856143	5.255089861628244	0	0
0.24	-4.390179029094893	-4.625322655721225	-87.08123026103925	0	0.9399999998679526	0	43.8998918848414	-16.71689920948568	0	59.2717572071799	1.034487316707968	-8.991180781460464	0	0	43.8998918848414	-16.71689920948568	0	59.2717572071799	1.034487316707968	-8.991180781460464	0	0	-10.9124125867722	13.63571225541169	-17.28785201768471	9.06305217993561	-8.285779777257662	11.65583019348166	0.05549502840590161	5.253960150094577	0	0	0	-7.258757514395779	0	84.83313733721923	5.253960150094577	0	0
0.25	-5.319868912119761	-5.826469717797615	-84.8710178924473	0	0.9399999998679526	0	43.9002913571301	-16.70821991651233	0	59.27196633781856	1.034490966726179	-8.984566761033065	0	0	43.9002913571301	-16.70821991651233	0	59.27196633781856	1.034490966726179	-8.984566761033065	0	0	-11.58329045135795	15.18688313055963	-19.57674581487767	9.140678075068173	-8.424362104294904	12.09706250485513	0.05404492092316829	5.25262483307042	0	0	0	-7.260211652769212	0	84.83445033375069	5.25262483307042	0	0
